<svg width="51" height="48" viewBox="0 0 51 48" fill="none" xmlns="http://www.w3.org/2000/svg">
<g clip-path="url(#clip0_612_16924)">
<path d="M50.8546 33.1432L44.0782 13.5826V4.3419C44.0782 1.94756 42.1218 0 39.7165 0H11.2677C8.86242 0 6.90599 1.94756 6.90599 4.3419V13.5857L5.06018 19.1012L0.344509 33.1809C0.262333 33.4263 0.218084 33.6843 0.211763 33.9423L0 42.7079C0 42.7457 0 42.7866 0 42.8243C0.0189638 43.0949 0.135907 43.3466 0.328706 43.5448C0.54995 43.7682 0.843889 43.8941 1.15995 43.8941H2.08286V46.6062C2.08286 47.3739 2.71182 48 3.48302 48H7.88262C8.65382 48 9.28278 47.3739 9.28278 46.6062V43.8941H41.6919V46.6062C41.6919 47.3739 42.3209 48 43.0921 48H47.4917C48.2629 48 48.8919 47.3739 48.8919 46.6062V43.8941H49.8306C50.4722 43.8941 50.9937 43.3749 50.9937 42.7362V33.9927C50.9937 33.7032 50.9463 33.4169 50.8515 33.1432H50.8546ZM7.93635 14.2811H43.051L44.3058 17.9056H6.72267L7.93635 14.2811ZM23.9165 13.0855H10.6608V12.0472C10.6608 9.86051 12.3454 8.08285 14.4125 8.08285H20.1617C22.2319 8.08285 23.9134 9.86051 23.9134 12.0472V13.0855H23.9165ZM40.3234 13.0855H27.0677V12.0472C27.0677 9.86051 28.7523 8.08285 30.8193 8.08285H36.5685C38.6388 8.08285 40.3202 9.86051 40.3202 12.0472V13.0855H40.3234ZM8.10387 4.3419C8.10387 2.60514 9.52299 1.1956 11.2645 1.1956H39.7165C41.4612 1.1956 42.8772 2.60829 42.8772 4.3419V13.0855H41.5213V12.0472C41.5213 9.20294 39.2993 6.88726 36.5685 6.88726H30.8193C28.0886 6.88726 25.8666 9.20294 25.8666 12.0472V13.0855H25.1144V12.0472C25.1144 9.20294 22.8925 6.88726 20.1617 6.88726H14.4125C11.6817 6.88726 9.45978 9.20294 9.45978 12.0472V13.0855H8.10387V4.3419ZM44.7198 19.1012L49.5556 33.0582H1.64985L6.32443 19.1012H44.723H44.7198ZM8.08806 46.6062C8.08806 46.7163 7.99957 46.8044 7.88894 46.8044H3.48934C3.37872 46.8044 3.29022 46.7163 3.29022 46.6062V43.8941H8.09122V46.6062H8.08806ZM47.6971 46.6062C47.6971 46.7163 47.6086 46.8044 47.498 46.8044H43.0984C42.9878 46.8044 42.8993 46.7163 42.8993 46.6062V43.8941H47.7003V46.6062H47.6971ZM49.799 42.6985H1.20104L1.27058 39.7598H49.799V42.6985ZM1.29902 38.5674L1.40332 34.2538H49.799V38.5674H1.29902Z" fill="#252F38"/>
</g>
<defs>
<clipPath id="clip0_612_16924">
<rect width="51" height="48" fill="white"/>
</clipPath>
</defs>
</svg>
