<svg width="54" height="54" viewBox="0 0 54 54" fill="none" xmlns="http://www.w3.org/2000/svg">
<g clip-path="url(#clip0_612_16926)">
<path d="M26.9994 0C12.1124 0 0 12.1124 0 26.9994C0 41.8865 12.1124 54 26.9994 54C41.8865 54 54 41.8876 54 26.9994C54 12.1113 41.8876 0 26.9994 0ZM26.9994 52.75C12.8019 52.75 1.24996 41.1981 1.24996 26.9994C1.24996 12.8008 12.8019 1.24996 26.9994 1.24996C41.197 1.24996 52.75 12.8008 52.75 26.9994C52.75 41.1981 41.1981 52.75 26.9994 52.75Z" fill="#252F38"/>
<path d="M26.9999 3.96729C14.3005 3.96729 3.96875 14.3002 3.96875 26.9995C3.96875 39.6988 14.3005 50.0317 26.9999 50.0317C39.6992 50.0317 50.0321 39.6999 50.0321 26.9995C50.0321 14.2991 39.7003 3.96729 26.9999 3.96729ZM48.7634 27.7387C48.6508 31.0969 47.7936 34.2941 46.2171 37.2408L46.163 37.3423L43.6146 35.8706C43.47 35.7868 43.3013 35.7647 43.1402 35.8077C42.9791 35.8508 42.8434 35.9545 42.7607 36.099C42.5886 36.3969 42.6912 36.7808 42.989 36.9529L45.5353 38.4224L45.4746 38.5195C43.7227 41.3173 41.3187 43.7223 38.5198 45.4732L38.4227 45.5338L36.9532 42.9887C36.8694 42.8442 36.7348 42.7404 36.5737 42.6974C36.4127 42.6544 36.2439 42.6765 36.0993 42.7603C35.8004 42.9324 35.6978 43.3152 35.871 43.6142L37.3427 46.1627L37.2423 46.2167C34.2956 47.7933 31.0984 48.6505 27.739 48.763L27.6254 48.7663V45.8229C27.6254 45.4787 27.3452 45.1985 26.9999 45.1985C26.6546 45.1985 26.3754 45.4787 26.3754 45.8229V48.7663L26.2607 48.763C22.9025 48.6505 19.7053 47.7933 16.7585 46.2167L16.6581 46.1627L18.1299 43.6142C18.302 43.3152 18.1994 42.9324 17.9015 42.7603C17.757 42.6765 17.5882 42.6544 17.4271 42.6974C17.2649 42.7404 17.1303 42.8442 17.0476 42.9887L15.5781 45.5349L15.481 45.4743C12.6821 43.7223 10.277 41.3173 8.52621 38.5195L8.46553 38.4224L11.0107 36.9529C11.1552 36.869 11.2589 36.7344 11.3019 36.5734C11.3461 36.4123 11.3229 36.2435 11.2402 36.099C11.067 35.8 10.6841 35.6974 10.3863 35.8695L7.83669 37.3423L7.78373 37.2419C6.20721 34.2952 5.35 31.098 5.23747 27.7387L5.23306 27.625H8.17648C8.5218 27.625 8.80202 27.3448 8.80202 26.9995C8.80202 26.6542 8.5218 26.374 8.17648 26.374H5.23306L5.23747 26.2603C5.35 22.9021 6.20611 19.7049 7.78373 16.7582L7.83669 16.6578L10.3863 18.1295C10.4811 18.1847 10.5893 18.2133 10.6985 18.2133C10.9213 18.2133 11.1287 18.0931 11.2402 17.9011C11.4123 17.6022 11.3097 17.2193 11.0118 17.0472L8.46553 15.5766L8.52621 15.4806C10.277 12.6817 12.6821 10.2767 15.481 8.52585L15.577 8.46517L17.0476 11.0103C17.159 11.2034 17.3664 11.3237 17.5893 11.3237C17.6985 11.3237 17.8066 11.295 17.9015 11.2398C18.046 11.156 18.1497 11.0214 18.1927 10.8603C18.2358 10.6992 18.2137 10.5304 18.1299 10.3859L16.6581 7.83633L16.7585 7.78337C19.7053 6.20575 22.9025 5.34964 26.2607 5.23711L26.3754 5.23269V8.17612C26.3754 8.52144 26.6557 8.80166 26.9999 8.80166C27.3441 8.80166 27.6254 8.52144 27.6254 8.17612V5.23269L27.739 5.23711C31.0984 5.34964 34.2956 6.20575 37.2423 7.78337L37.3427 7.83633L35.871 10.3859C35.6978 10.6838 35.8004 11.0677 36.0993 11.2398C36.1942 11.295 36.3023 11.3237 36.4116 11.3237C36.6344 11.3237 36.8418 11.2034 36.9532 11.0114L38.4227 8.46517L38.5198 8.52585C41.3187 10.2778 43.7238 12.6817 45.4746 15.4806L45.5353 15.5766L42.989 17.0472C42.6912 17.2193 42.5886 17.6022 42.7607 17.9011C42.8721 18.0942 43.0795 18.2133 43.3024 18.2133C43.4116 18.2133 43.5197 18.1847 43.6146 18.1295L46.163 16.6578L46.2171 16.7582C47.7936 19.7049 48.6508 22.9021 48.7634 26.2603L48.7667 26.3751H45.8232C45.479 26.3751 45.1988 26.6553 45.1988 26.9995C45.1988 27.3437 45.479 27.625 45.8232 27.625H48.7667L48.7634 27.7387Z" fill="#252F38"/>
<path d="M32.482 26.8219L27.6113 11.2476C27.5296 10.9861 27.2902 10.8096 27.0155 10.8096C26.7408 10.8096 26.5014 10.985 26.4187 11.2465L21.5192 26.8219C21.4806 26.9444 21.4806 27.0746 21.5192 27.197L26.4341 42.7537C26.5157 43.0152 26.7562 43.1906 27.0298 43.1906C27.3057 43.1906 27.5451 43.0141 27.6267 42.7515L32.482 27.1959C32.5206 27.0734 32.5206 26.9444 32.482 26.8219ZM27.0133 13.5235L31.0324 26.3751H22.9711L27.0133 13.5235ZM27.0265 40.4788L22.9655 27.6251H31.039L27.0265 40.4788Z" fill="#252F38"/>
</g>
<defs>
<clipPath id="clip0_612_16926">
<rect width="54" height="54" fill="white"/>
</clipPath>
</defs>
</svg>
