<svg width="98" height="41" viewBox="0 0 98 41" fill="none" xmlns="http://www.w3.org/2000/svg">
<path fill-rule="evenodd" clip-rule="evenodd" d="M1.39941 38.4999C1.39941 38.1685 1.66804 37.8999 1.99941 37.8999H96.8831C97.2145 37.8999 97.4831 38.1685 97.4831 38.4999C97.4831 38.8313 97.2145 39.0999 96.8831 39.0999H1.99941C1.66804 39.0999 1.39941 38.8313 1.39941 38.4999Z" fill="#252F38"/>
<path fill-rule="evenodd" clip-rule="evenodd" d="M1.3998 41C1.06843 41 0.799805 40.7314 0.799805 40.4L0.799805 36.6C0.799805 36.2686 1.06843 36 1.3998 36C1.73118 36 1.9998 36.2686 1.9998 36.6L1.9998 40.4C1.9998 40.7314 1.73118 41 1.3998 41Z" fill="#252F38"/>
<path fill-rule="evenodd" clip-rule="evenodd" d="M97.3998 41C97.0684 41 96.7998 40.7314 96.7998 40.4V36.6C96.7998 36.2686 97.0684 36 97.3998 36C97.7312 36 97.9998 36.2686 97.9998 36.6V40.4C97.9998 40.7314 97.7312 41 97.3998 41Z" fill="#252F38"/>
<g clip-path="url(#clip0_612_16935)">
<path d="M92.9874 26.0375H92.375C92.387 26.0334 92.3989 26.0334 92.4109 26.0334H92.4129L92.9874 26.0375Z" fill="#252F38"/>
<path d="M92.9868 26.238H91.1816L92.3086 25.8469C92.3525 25.8308 92.3884 25.8308 92.4084 25.8308L92.9868 25.8348V26.236V26.238Z" fill="#252F38"/>
<path d="M95.6253 26.0535L92.9883 26.0354H95.3121C95.3121 26.0354 95.3281 26.0374 95.336 26.0374C95.4318 26.0434 95.5295 26.0494 95.6253 26.0535Z" fill="#252F38"/>
<path d="M95.6233 26.2539L92.9863 26.2358V25.8347L95.348 25.8367C95.4418 25.8427 95.5395 25.8488 95.6333 25.8528L95.6233 26.2539Z" fill="#252F38"/>
<path d="M48.9822 7.55908L48.9004 7.56309V7.56109L48.9822 7.55908Z" fill="#252F38"/>
<path d="M48.7012 7.77381V7.36667L48.9764 7.35864L48.9844 7.56121H49.1001L48.9844 7.56322L48.9904 7.75977L48.7012 7.77381Z" fill="#252F38"/>
<path d="M97.6302 26.1195L80.5058 15.4675L81.178 13.5842C81.2179 13.4718 81.2019 13.3455 81.1341 13.2492C81.0663 13.1509 80.9546 13.0928 80.8349 13.0928H70.5702L68.5894 11.1012H74.0968C74.2703 11.1012 74.4219 10.9788 74.4558 10.8084C74.4918 10.6359 74.404 10.4634 74.2444 10.3932L66.6307 7.05378C66.5848 7.03373 66.5349 7.0237 66.4831 7.0237H64.7676C64.7676 7.0237 64.7676 7.02771 64.7676 7.02972L63.4012 7.07585L64.3946 6.50022C64.4923 6.44206 64.5582 6.34178 64.5741 6.22946C64.5901 6.11715 64.5522 6.00282 64.4724 5.92059L63.2217 4.63297C63.1519 4.56077 63.0562 4.52065 62.9584 4.52065H60.6506L60.9258 3.53989C60.9697 3.55995 61.0196 3.56998 61.0695 3.56998H63.2576C63.4591 3.56998 63.6247 3.40551 63.6247 3.20094C63.6247 2.99636 63.4591 2.8319 63.2576 2.8319H61.1253L61.3487 2.03967H63.2576C63.4591 2.03967 63.6247 1.87521 63.6247 1.67063C63.6247 1.46605 63.4591 1.30159 63.2576 1.30159H61.5562L61.7337 0.667807C61.7656 0.557497 61.7437 0.437158 61.6738 0.344898C61.604 0.252639 61.4943 0.198486 61.3806 0.198486H59.5954C59.4617 0.198486 59.3381 0.272695 59.2742 0.391028L57.0262 4.52065H56.9185C56.8726 4.52065 56.8247 4.53068 56.7829 4.54873L53.3759 5.91859C53.2363 5.97475 53.1445 6.11113 53.1445 6.26155V7.41881L49.0015 7.5572H48.9816L48.8998 7.56322L47.4956 7.65347C47.3021 7.6655 47.1505 7.82796 47.1505 8.02251V9.3322H37.3844C37.0713 9.35025 30.2235 9.78748 27.2075 11.5384C27.0938 11.6046 27.024 11.7269 27.024 11.8573V13.0005C25.913 13.1891 21.9774 13.893 17.9162 15.0122C17.9122 15.0122 17.9102 15.0142 17.9083 15.0142C16.4501 15.4153 14.9741 15.8706 13.6077 16.374L11.6669 17.0198H1.56971C1.41811 17.0198 1.28048 17.1141 1.22662 17.2545C1.17077 17.3969 1.20867 17.5594 1.32237 17.6616L11.1383 26.677C11.2041 26.7392 11.2938 26.7733 11.3856 26.7733H93.9141L96.0185 26.7873H96.0245L97.4367 26.7974H97.4387C97.6023 26.7974 97.7439 26.6891 97.7898 26.5326C97.8337 26.3742 97.7698 26.2057 97.6302 26.1195ZM59.8148 0.93857H60.8959L59.8866 4.52065H57.866L59.8148 0.93857ZM53.8806 6.51226L56.9923 5.26074H62.8048L63.6187 6.09709L61.8414 7.12799L53.8806 7.39474V6.51226ZM27.4229 13.6824H38.1404L35.8645 15.0042H20.9262C24.3192 14.1979 27.1138 13.7346 27.4229 13.6824ZM95.6255 26.0533L92.9886 26.0352H11.5272L7.52587 22.3609H45.0501C45.2515 22.3609 45.4171 22.1964 45.4171 21.9918C45.4171 21.7873 45.2515 21.6228 45.0501 21.6228H6.724L2.51719 17.7579H25.1669C25.1669 17.7579 25.1789 17.7579 25.1849 17.7559H30.1557C30.3591 17.7559 30.5227 17.5914 30.5227 17.3869C30.5227 17.1823 30.3591 17.0178 30.1557 17.0178H22.8172C22.8172 17.0178 22.8052 17.0178 22.7992 17.0198H13.9448C14.8803 16.6949 15.8497 16.382 16.8551 16.0832C17.254 15.9649 17.6489 15.8526 18.0419 15.7442H35.9622C36.0261 15.7442 36.0899 15.7262 36.1457 15.6941L39.6105 13.6824H52.7875C52.9909 13.6824 53.1545 13.518 53.1545 13.3134C53.1545 13.1088 52.9909 12.9444 52.7875 12.9444H27.762V12.0759C30.7282 10.4955 37.3406 10.0743 37.4084 10.0703H47.5215C47.7229 10.0703 47.8885 9.90581 47.8885 9.70124V8.36949L48.9676 8.29929L64.8733 7.76378L66.4072 7.76178L72.3355 10.3631H70.8215C70.8215 10.3631 70.8375 10.3671 70.8454 10.3691H67.7098C67.5622 10.3691 67.4305 10.4594 67.3727 10.5958C67.3168 10.7321 67.3488 10.8886 67.4525 10.9929L70.1613 13.7185C70.2291 13.7867 70.3228 13.8248 70.4186 13.8248H80.3183L79.8296 15.1907H73.5722C73.3727 15.1907 73.2092 15.3531 73.2092 15.5557C73.2092 15.7583 73.3727 15.9227 73.5722 15.9227H79.8535C79.8535 15.9227 79.8655 15.9308 79.8714 15.9348L89.0351 21.6348H73.0097C72.8082 21.6348 72.6447 21.7973 72.6447 21.9999C72.6447 22.2024 72.8082 22.3669 73.0097 22.3669H90.1262C90.1501 22.3669 90.174 22.3649 90.198 22.3589H90.2L96.1442 26.0573L95.6255 26.0533Z" fill="#252F38"/>
<path d="M97.4383 26.998L93.9117 26.9739H11.3852C11.2416 26.9739 11.102 26.9198 11.0003 26.8235L1.18636 17.8101C1.01282 17.6537 0.952978 17.401 1.03875 17.1824C1.12253 16.9658 1.33396 16.8213 1.56734 16.8213H11.6346L13.5455 16.1856C14.8001 15.7223 16.2503 15.265 17.848 14.8257L17.8879 14.8157C21.7935 13.7407 25.5356 13.0568 26.8262 12.8341V11.8594C26.8262 11.6568 26.9339 11.4683 27.1094 11.366C30.2132 9.56492 37.3043 9.13772 37.3741 9.13371H46.9526V8.02459C46.9526 7.72374 47.186 7.47504 47.4852 7.45499L48.9852 7.35871L52.9487 7.22634V6.26363C52.9487 6.02897 53.0883 5.82239 53.3057 5.73414L56.7127 4.36428C56.7725 4.33821 56.8423 4.32417 56.9121 4.32217L59.1043 0.296836C59.202 0.114322 59.3935 0 59.601 0H61.3862C61.5618 0 61.7313 0.0842371 61.839 0.224632C61.9467 0.367033 61.9807 0.553558 61.9308 0.724038L61.8251 1.1011H63.2632C63.5764 1.1011 63.8297 1.35582 63.8297 1.6707C63.8297 1.98559 63.5764 2.24031 63.2632 2.24031H61.5059L61.3962 2.63141H63.2652C63.5784 2.63141 63.8317 2.88612 63.8317 3.20101C63.8317 3.5159 63.5784 3.77061 63.2652 3.77061H61.0751L60.9215 4.32016H62.966C63.1176 4.32016 63.2652 4.38434 63.3729 4.49265L64.6236 5.78027C64.7453 5.90663 64.8051 6.08513 64.7792 6.25761C64.7553 6.43211 64.6535 6.58253 64.5039 6.67278L64.2007 6.84928L64.5738 6.83725V6.82521H66.4887C66.5685 6.82521 66.6442 6.84126 66.7161 6.87134L74.3298 10.2107C74.5751 10.319 74.7128 10.5878 74.6569 10.8505C74.6051 11.1113 74.3717 11.3018 74.1024 11.3018H69.0758L70.6576 12.8923H80.8405C81.026 12.8923 81.1995 12.9825 81.3033 13.135C81.407 13.2834 81.4329 13.4759 81.3711 13.6524L80.7527 15.3833L97.7395 25.949C97.953 26.0814 98.0547 26.3422 97.9869 26.5868C97.9151 26.8335 97.6957 26.998 97.4443 26.998H97.4383ZM1.56934 17.2205C1.49952 17.2205 1.43569 17.2626 1.41176 17.3268C1.38583 17.393 1.40378 17.4672 1.45365 17.5113L11.2715 26.5287C11.3015 26.5568 11.3413 26.5728 11.3852 26.5728H93.9137L97.4383 26.5969C97.5141 26.5969 97.578 26.5487 97.5979 26.4765C97.6179 26.4063 97.5879 26.3301 97.5261 26.292L80.264 15.5538L80.9901 13.5181C81.008 13.4679 81.0001 13.4097 80.9721 13.3676C80.9402 13.3215 80.8904 13.2954 80.8365 13.2954H70.49L68.1104 10.9027H74.0984C74.1782 10.9027 74.246 10.8465 74.262 10.7703C74.2779 10.6881 74.24 10.6099 74.1662 10.5778L66.5525 7.23838C66.5325 7.23035 66.5086 7.22434 66.4847 7.22434L64.7772 7.23035L62.613 7.30256L64.2985 6.32581C64.3404 6.29973 64.3723 6.2536 64.3803 6.20146C64.3882 6.15132 64.3703 6.09917 64.3324 6.06106L63.0817 4.77344C63.0498 4.73934 63.0059 4.72129 62.962 4.72129H60.3909L60.8018 3.26118L61.0132 3.35745C61.0312 3.36547 61.0531 3.36948 61.0751 3.36948H63.2632C63.355 3.36948 63.4308 3.29327 63.4308 3.20101C63.4308 3.10875 63.355 3.03254 63.2632 3.03254H60.8676L61.2047 1.83918H63.2652C63.357 1.83918 63.4328 1.76296 63.4328 1.6707C63.4328 1.57844 63.357 1.50223 63.2652 1.50223H61.3005L61.5498 0.613728C61.5658 0.561581 61.5538 0.507428 61.5239 0.467315C61.492 0.425197 61.4421 0.399123 61.3902 0.399123H59.605C59.5431 0.399123 59.4893 0.433219 59.4594 0.487372L57.1535 4.72129H56.9281C56.9101 4.72129 56.8882 4.7253 56.8722 4.73332L53.4593 6.10519C53.3955 6.13126 53.3536 6.19343 53.3536 6.26163V7.61343L48.9194 7.76385L47.5191 7.85411C47.4294 7.86013 47.3615 7.93433 47.3615 8.02258V9.53283H37.396C37.3382 9.53685 30.3408 9.95803 27.3188 11.713C27.267 11.7431 27.2351 11.7992 27.2351 11.8574V13.1711L27.0695 13.1992C25.9704 13.3857 22.0648 14.0816 17.9857 15.2048L17.9498 15.2148C16.368 15.6501 14.9358 16.1033 13.6891 16.5626L11.7124 17.2205H1.56934ZM96.8539 26.2639L92.9862 26.2359H11.4491L7.01086 22.1604H45.0497C45.1414 22.1604 45.2172 22.0842 45.2172 21.9919C45.2172 21.8996 45.1414 21.8234 45.0497 21.8234H6.64584L2.00219 17.5574H30.1553C30.2491 17.5574 30.3229 17.4812 30.3229 17.3869C30.3229 17.2927 30.2491 17.2185 30.1553 17.2185H12.7556L13.8786 16.8294C14.8281 16.5004 15.8095 16.1836 16.7968 15.8907C17.1978 15.7724 17.5927 15.6601 17.9877 15.5498L18.0395 15.5417H35.9599C35.9878 15.5417 36.0177 15.5337 36.0436 15.5177L39.5543 13.4799H52.7851C52.8789 13.4799 52.9527 13.4057 52.9527 13.3115C52.9527 13.2172 52.8789 13.143 52.7851 13.143H27.5602V11.9536L27.6659 11.8975C30.6779 10.293 37.3262 9.87379 37.3941 9.86978H47.5191C47.6109 9.86978 47.6867 9.79357 47.6867 9.70131V8.18103L48.9593 8.09679L64.6715 7.56931V7.56329H64.871H66.4468L66.4847 7.57934L73.2886 10.5657H72.4767L72.5007 10.5718H67.7054C67.6396 10.5718 67.5778 10.6139 67.5518 10.6761C67.5279 10.7342 67.5419 10.8044 67.5897 10.8525L70.2985 13.5782C70.3284 13.6083 70.3703 13.6264 70.4142 13.6264H80.5971L79.9648 15.3933H73.5678C73.4781 15.3933 73.4043 15.4675 73.4043 15.5578C73.4043 15.648 73.4781 15.7243 73.5678 15.7243H79.909L79.9588 15.7564L89.7348 21.8375H73.0073C72.9156 21.8375 72.8418 21.9117 72.8418 22.0019C72.8418 22.0922 72.9156 22.1684 73.0073 22.1684H90.1238C90.1338 22.1684 90.1417 22.1684 90.1477 22.1664L90.1956 22.1604H90.2515L90.3013 22.1905L96.8499 26.2659L96.8539 26.2639ZM11.6046 25.8347H92.9882L95.4337 25.8508L90.1537 22.5655C90.1537 22.5655 90.1338 22.5655 90.1258 22.5655H73.0093C72.6981 22.5655 72.4448 22.3108 72.4448 21.9979C72.4448 21.685 72.6981 21.4323 73.0093 21.4323H88.3326L79.7953 16.1214H73.5718C73.2626 16.1214 73.0093 15.8667 73.0093 15.5538C73.0093 15.2409 73.2626 14.9882 73.5718 14.9882H79.6895L80.0346 14.0235H70.4182C70.2686 14.0235 70.125 13.9633 70.0193 13.859L67.3105 11.1333C67.1489 10.9709 67.101 10.7302 67.1868 10.5176C67.2786 10.303 67.482 10.1666 67.7094 10.1666H69.3311L69.3092 10.1606H71.3796L66.365 7.96041H64.8789L48.9792 8.49792L48.0876 8.55608V9.6993C48.0876 10.0142 47.8343 10.2689 47.5211 10.2689H37.408C37.3542 10.2729 30.9452 10.6761 27.9611 12.1963V12.7419H52.7871C53.1003 12.7419 53.3536 12.9966 53.3536 13.3115C53.3536 13.6264 53.1003 13.8811 52.7871 13.8811H39.664L36.2451 15.8667C36.1573 15.9168 36.0596 15.9429 35.9619 15.9429H18.0675C17.6845 16.0492 17.2995 16.1575 16.9105 16.2738C16.3261 16.4483 15.7416 16.6288 15.1672 16.8173H30.1553C30.4685 16.8173 30.7218 17.07 30.7218 17.3849C30.7218 17.6998 30.4685 17.9545 30.1553 17.9545H3.02945L6.79943 21.4203H45.0477C45.3609 21.4203 45.6142 21.675 45.6142 21.9899C45.6142 22.3048 45.3609 22.5595 45.0477 22.5595H8.03813L11.6027 25.8327L11.6046 25.8347ZM35.918 15.2048H19.2144L20.88 14.8097C23.87 14.0997 26.4073 13.6504 27.3607 13.49L27.4226 13.4819H38.8841L35.918 15.2048ZM22.7071 14.8037H35.8103L37.396 13.8831H27.4266C26.6686 14.0134 24.9033 14.3223 22.7071 14.8037ZM53.6807 7.6014V6.37595L56.954 5.06024H62.8882L63.9394 6.14129L61.8969 7.32662H61.847L53.6807 7.6014ZM54.0797 6.64671V7.18623L61.7852 6.9275L63.2971 6.05103L62.7227 5.45937H57.0318L54.0817 6.64671H54.0797ZM60.0378 4.71928H57.5305L59.6967 0.736072H61.1588L60.0358 4.71928H60.0378ZM58.2027 4.31816H59.7366L60.6322 1.1372H59.9341L58.2027 4.31816Z" fill="#252F38"/>
<circle cx="43.5" cy="17.4978" r="1" stroke="#252F38"/>
<circle cx="51.5" cy="17.4978" r="1" stroke="#252F38"/>
<circle cx="59.5" cy="17.4978" r="1" stroke="#252F38"/>
<circle cx="67.5" cy="17.4978" r="1" stroke="#252F38"/>
</g>
<defs>
<clipPath id="clip0_612_16935">
<rect width="97" height="27" fill="white" transform="translate(1)"/>
</clipPath>
</defs>
</svg>
