<svg width="42" height="50" viewBox="0 0 42 50" fill="none" xmlns="http://www.w3.org/2000/svg">
<path d="M41.3731 25.4002C39.9469 24.8956 38.5213 24.3875 37.0922 23.8905C36.8965 23.8229 36.7934 23.7435 36.7684 23.5159C36.7084 22.9613 36.6106 22.4115 36.5284 21.8592C36.0905 18.9158 35.6526 15.9718 35.2135 13.0283C35.0044 11.6246 34.7959 10.2202 34.5822 8.81698C34.5187 8.40354 34.3219 8.23652 33.9183 8.23123C33.7145 8.22829 33.5106 8.23005 33.3068 8.23005H31.9569C31.9569 7.39613 31.9575 6.60396 31.9563 5.8118C31.9557 5.2184 31.7636 5.02668 31.1672 5.02551C30.4393 5.02433 29.7113 5.0261 28.9839 5.02492C28.8809 5.02492 28.7778 5.01551 28.6467 5.00904V4.19394C28.6467 3.01774 28.6497 1.84154 28.6456 0.665348C28.6438 0.220157 28.3346 -0.0609536 27.945 0.0119706C27.6445 0.068428 27.4634 0.314253 27.4628 0.684755C27.4605 2.01739 27.4622 3.3506 27.4622 4.68323V5.02433C26.9224 5.02433 26.4192 5.03198 25.9172 5.0161C25.8485 5.01375 25.7483 4.90495 25.7227 4.82614C25.2673 3.39706 24.1829 2.58784 22.6985 2.58431C21.592 2.58196 20.4855 2.58372 19.3796 2.58431C17.8177 2.58431 16.7724 3.34766 16.2797 4.83908C16.2564 4.90906 16.1836 5.01316 16.1312 5.01433C15.6111 5.02786 15.0905 5.02257 14.5413 5.02257V3.5235C14.5413 2.58255 14.5431 1.64159 14.5408 0.701222C14.5396 0.274851 14.3154 0.0113825 13.9578 0.00432532C13.5863 -0.00331996 13.3621 0.258972 13.3562 0.707691C13.3556 0.766501 13.3562 0.82531 13.3562 0.88412V5.02551H13.0068C12.2981 5.02551 11.5899 5.02492 10.8812 5.02551C10.2243 5.02551 10.0472 5.20194 10.0467 5.85414C10.0461 6.21699 10.0467 6.57926 10.0467 6.94212V8.18242C9.99775 8.20653 9.98086 8.22182 9.96455 8.22182C9.35307 8.22535 8.74159 8.22711 8.13069 8.23064C7.67761 8.233 7.48893 8.38649 7.41963 8.82933C7.28568 9.68031 7.15814 10.5325 7.03119 11.3846C6.43136 15.4125 5.83036 19.4404 5.24101 23.47C5.20432 23.7241 5.10357 23.8264 4.87295 23.9064C3.40598 24.4122 1.94425 24.9344 0.481938 25.4543C0.0771962 25.5978 -0.0485942 25.8183 0.0160481 26.2388C0.041672 26.4035 0.0649665 26.5681 0.0911729 26.7328C0.700907 30.5478 1.54533 34.3052 2.84225 37.9472C4.05415 41.3494 5.61314 44.5657 7.89309 47.3862C7.91638 47.4156 7.93211 47.4515 7.96472 47.5068C7.54658 47.6926 7.14242 47.8796 6.73244 48.0519C6.26305 48.2495 5.83443 48.2119 5.44367 47.8379C5.195 47.6003 4.82287 47.6403 4.60914 47.8826C4.39192 48.1278 4.40473 48.4818 4.65573 48.7271C5.10881 49.1699 5.65099 49.4463 6.2846 49.3528C6.7569 49.2834 7.21871 49.1158 7.67295 48.9564C8.02878 48.8324 8.36247 48.6453 8.71189 48.5018C9.20049 48.3007 9.64192 48.3672 10.0152 48.7671C10.081 48.8382 10.1608 48.8965 10.2388 48.9547C10.9744 49.4993 11.7623 49.4604 12.5619 49.1435C13.0487 48.9511 13.5199 48.7188 14.0015 48.513C14.4977 48.3007 14.9321 48.3725 15.3328 48.7647C15.9163 49.3364 16.6268 49.4981 17.406 49.2875C17.7496 49.1946 18.0798 49.0452 18.4123 48.9117C18.7897 48.76 19.1571 48.5795 19.5403 48.4454C19.9055 48.3178 20.2555 48.3907 20.5368 48.6706C21.327 49.4569 22.2344 49.5398 23.2209 49.1305C23.6868 48.9376 24.1428 48.7212 24.6063 48.5218C25.1223 48.2995 25.573 48.3683 25.9888 48.7818C26.4565 49.2476 27.0452 49.4657 27.694 49.3422C28.1552 49.2546 28.6007 49.0741 29.0445 48.9117C29.4265 48.7718 29.7899 48.5818 30.1731 48.446C30.526 48.3213 30.876 48.3778 31.1474 48.6512C31.9942 49.5034 32.9551 49.5322 33.9893 49.0794C34.4069 48.8965 34.8186 48.6989 35.2385 48.5218C35.7131 48.3219 36.154 48.336 36.557 48.7224C36.8126 48.9676 37.169 48.93 37.3892 48.683C37.6116 48.4342 37.6192 48.0649 37.3467 47.8455C37.0712 47.6238 36.7631 47.4174 36.437 47.291C35.8523 47.0645 35.2694 47.2133 34.7103 47.4392C34.3912 47.5674 34.0808 47.7167 33.7127 47.8802C33.7698 47.7997 33.7884 47.7685 33.8117 47.7408C35.6002 45.6055 36.9606 43.2078 38.0688 40.6572C40.0541 36.0871 41.1972 31.2812 41.9671 26.3723C42.0644 25.7536 41.9665 25.6101 41.3731 25.4002ZM19.1309 3.78638C20.3807 3.76345 21.631 3.76227 22.8808 3.78815C23.5458 3.80168 24.0566 4.14218 24.3961 4.72675C24.4421 4.80732 24.4718 4.8973 24.5201 5.00669H17.5172C17.6634 4.3492 18.3587 3.79991 19.1309 3.78638ZM11.2539 6.25052H30.7596V8.21182H11.2539V6.25052ZM8.52903 9.43624H33.4734C33.5887 10.2031 33.7034 10.9706 33.8216 11.7592H8.18136C8.29958 10.9682 8.41372 10.2055 8.52903 9.43624ZM20.3912 47.238C19.4419 47.0416 18.6482 47.4721 17.8416 47.8543C17.6838 47.9296 17.5195 47.9902 17.3582 48.0567C16.858 48.2619 16.4288 48.1819 16.0275 47.7926C15.3869 47.1704 14.6147 47.0457 13.7872 47.3209C13.3749 47.4586 12.9835 47.6597 12.5805 47.8267C12.3301 47.9308 12.0791 48.0349 11.8223 48.1202C11.449 48.2443 11.1106 48.1607 10.827 47.8885C10.4293 47.5056 9.97795 47.2504 9.42004 47.1869C9.30706 47.1739 9.18651 47.0622 9.1044 46.9651C7.60715 45.1956 6.43951 43.2148 5.45182 41.12C4.39949 38.8876 3.58884 36.564 2.91505 34.1905C2.89467 34.117 2.88535 34.0405 2.8772 33.997C3.88527 33.7917 4.89159 33.6306 5.87403 33.3777C8.87786 32.6038 11.6365 31.2547 14.2723 29.6333C16.3222 28.373 18.2574 26.951 20.093 25.3896C20.1798 25.3161 20.2665 25.2426 20.3912 25.1379V47.238ZM19.8152 24.057C16.3868 26.9622 12.7197 29.4769 8.56106 31.2041C6.72487 31.9669 4.82811 32.5103 2.84924 32.7361C2.75374 32.7473 2.65765 32.7508 2.4841 32.7632C2.05781 30.6654 1.63269 28.5724 1.20523 26.4687C7.64325 24.1963 14.012 21.9486 20.4127 19.6897C20.4127 20.7207 20.3749 21.7104 20.4267 22.6955C20.4581 23.2918 20.2677 23.6735 19.8152 24.057ZM20.5804 18.3506C15.9908 19.9785 11.3989 21.5981 6.80698 23.2195C6.70856 23.2536 6.60723 23.2789 6.46572 23.3207C6.56472 22.6379 6.65615 21.991 6.75224 21.3452C7.15349 18.6529 7.55881 15.9612 7.95191 13.2677C7.98452 13.0454 8.05615 12.9801 8.27745 12.9807C16.7601 12.986 25.2428 12.986 33.7261 12.9807C33.9468 12.9801 34.0185 13.0454 34.0511 13.2677C34.5228 16.484 35.005 19.6986 35.4843 22.9137C35.5029 23.0372 35.5134 23.1613 35.5332 23.3307C35.1558 23.2001 34.8186 23.0854 34.4832 22.9672C30.1289 21.4299 25.7745 19.8944 21.4231 18.3506C21.1314 18.2471 20.8716 18.2477 20.5804 18.3506ZM32.1392 47.7703C31.671 47.5679 31.2808 47.3445 30.8615 47.2321C30.3053 47.0822 29.7678 47.2757 29.253 47.4944C28.8244 47.6767 28.4039 47.8779 27.9753 48.0596C27.4867 48.2666 27.0627 48.1796 26.6714 47.7991C26.0308 47.1774 25.2597 47.0404 24.4316 47.3192C23.9646 47.4762 23.5266 47.7191 23.0636 47.8914C22.741 48.012 22.4021 48.1255 22.0631 48.156C21.6898 48.1896 21.5908 48.0472 21.5908 47.6726V25.1202C21.7539 25.2579 21.8616 25.3496 21.9694 25.4407C24.8806 27.8908 27.998 30.0197 31.4386 31.6446C33.8053 32.762 36.2606 33.5894 38.8672 33.907C38.9528 33.917 39.0378 33.9352 39.1636 33.9564C37.6873 39.0605 35.7673 43.9064 32.1392 47.7703ZM40.697 26.8328C40.2981 28.717 39.9207 30.6066 39.5352 32.4944C39.5177 32.5791 39.4892 32.6608 39.449 32.8037C38.6494 32.6602 37.8533 32.5497 37.0718 32.3703C34.1215 31.6946 31.4159 30.4172 28.8273 28.8694C26.3586 27.3938 24.0571 25.6848 21.8913 23.7853C21.6753 23.5959 21.5786 23.41 21.5833 23.1154C21.6013 21.9898 21.5908 20.863 21.5908 19.6897C22.6344 20.0585 23.6291 20.4102 24.6244 20.7613C29.8819 22.6167 35.1383 24.4751 40.3988 26.32C40.6877 26.4211 40.7622 26.5258 40.697 26.8328Z" fill="#252F38"/>
</svg>
